<?xml version="1.0" encoding="UTF-8"?><svg xmlns="http://www.w3.org/2000/svg" viewBox="0 0 800 600"><defs><style>.c{fill:#fff;}.d{fill:#fca289;}.e{fill:#133955;}</style></defs><g id="a"><rect class="c" width="800" height="600"/></g><g id="b"><polygon class="e" points="83.34 551 83.34 533.95 49.85 533.95 49.85 540.39 76.69 540.39 76.69 551 83.34 551"/><rect class="d" x="40.54" y="82.96" width="7.77" height="434.08"/><polygon class="e" points="60.8 571.21 29 571.21 29 540.39 38.99 540.39 38.99 533.95 22.37 533.95 22.34 577.66 67.45 577.66 67.45 541.89 60.8 541.89 60.8 571.21"/><rect class="d" x="69" y="552.51" width="662.01" height="6.44"/><polygon class="d" points="59.25 552.51 48.31 552.51 48.31 526.49 40.54 526.49 40.53 558.95 59.25 558.95 59.25 552.51"/><polygon class="e" points="750.15 533.95 716.66 533.95 716.66 551 723.31 551 723.31 540.39 750.15 540.39 750.15 533.95"/><polygon class="e" points="777.65 75.01 739.2 75.01 739.2 67.55 732.55 67.55 732.55 81.46 771 81.46 771 518.54 732.55 518.54 732.55 532.45 739.2 532.45 739.2 524.99 777.65 524.99 777.65 75.01"/><polygon class="e" points="761.01 533.95 761.01 540.39 771 540.39 771 571.21 739.2 571.21 739.2 541.89 732.55 541.89 732.55 577.66 777.66 577.66 777.63 533.95 761.01 533.95"/><polygon class="e" points="716.66 571.21 83.34 571.21 83.34 560.45 76.69 560.45 76.69 577.66 723.31 577.66 723.31 560.45 716.66 560.45 716.66 571.21"/><polygon class="e" points="759.46 526.49 751.69 526.49 751.69 552.51 740.75 552.51 740.75 558.95 759.47 558.95 759.46 526.49"/><polygon class="e" points="83.34 49 76.69 49 76.69 59.61 49.85 59.61 49.85 66.05 83.34 66.05 83.34 49"/><polygon class="e" points="22.35 524.99 60.8 524.99 60.8 532.45 67.45 532.45 67.45 518.54 29 518.54 29 81.46 67.45 81.46 67.45 67.55 60.8 67.55 60.8 75.01 22.35 75.01 22.35 524.99"/><polygon class="e" points="38.99 66.05 38.99 59.61 29 59.61 29 28.79 60.8 28.79 60.8 58.11 67.45 58.11 67.45 22.34 22.34 22.34 22.37 66.05 38.99 66.05"/><rect class="d" x="69" y="41.05" width="662.01" height="6.44"/><polygon class="d" points="48.31 47.49 59.25 47.49 59.25 41.05 40.53 41.05 40.54 73.51 48.31 73.51 48.31 47.49"/><polygon class="e" points="716.66 49 716.66 66.05 750.15 66.05 750.15 59.61 723.31 59.61 723.31 49 716.66 49"/><rect class="d" x="751.69" y="82.96" width="7.77" height="434.08"/><polygon class="e" points="739.2 28.79 771 28.79 771 59.61 761.01 59.61 761.01 66.05 777.63 66.05 777.66 22.34 732.55 22.34 732.55 58.11 739.2 58.11 739.2 28.79"/><polygon class="e" points="83.34 28.79 716.66 28.79 716.66 39.55 723.31 39.55 723.31 22.34 76.69 22.34 76.69 39.55 83.34 39.55 83.34 28.79"/><polygon class="d" points="759.46 73.51 759.47 41.05 740.75 41.05 740.75 47.49 751.69 47.49 751.69 73.51 759.46 73.51"/></g></svg>